<?xml version="1.0" encoding="UTF-8" standalone="no"?>
<!-- Created with Inkscape (http://www.inkscape.org/) -->

<svg
   xmlns:dc="http://purl.org/dc/elements/1.1/"
   xmlns:cc="http://creativecommons.org/ns#"
   xmlns:rdf="http://www.w3.org/1999/02/22-rdf-syntax-ns#"
   xmlns:svg="http://www.w3.org/2000/svg"
   xmlns="http://www.w3.org/2000/svg"
   xmlns:sodipodi="http://sodipodi.sourceforge.net/DTD/sodipodi-0.dtd"
   xmlns:inkscape="http://www.inkscape.org/namespaces/inkscape"
   width="241.2422mm"
   height="280.535mm"
   viewBox="0 0 854.79521 994.02166"
   id="svg2"
   version="1.1"
   inkscape:version="0.91 r13725"
   sodipodi:docname="monster.svg">
  <defs
     id="defs4" />
  <sodipodi:namedview
     id="base"
     pagecolor="#ffffff"
     bordercolor="#666666"
     borderopacity="1.0"
     inkscape:pageopacity="0.0"
     inkscape:pageshadow="2"
     inkscape:zoom="0.70710678"
     inkscape:cx="576.28003"
     inkscape:cy="515.38315"
     inkscape:document-units="px"
     inkscape:current-layer="layer1"
     showgrid="false"
     inkscape:window-width="1375"
     inkscape:window-height="876"
     inkscape:window-x="65"
     inkscape:window-y="24"
     inkscape:window-maximized="1"
     showguides="true"
     fit-margin-left="20"
     fit-margin-top="20"
     fit-margin-right="20"
     fit-margin-bottom="20" />
  <metadata
     id="metadata7">
    <rdf:RDF>
      <cc:Work
         rdf:about="">
        <dc:format>image/svg+xml</dc:format>
        <dc:type
           rdf:resource="http://purl.org/dc/dcmitype/StillImage" />
        <dc:title></dc:title>
      </cc:Work>
    </rdf:RDF>
  </metadata>
  <g
     inkscape:label="Layer 1"
     inkscape:groupmode="layer"
     id="layer1"
     transform="translate(54.256108,-24.901389)">
    <g
       id="g18400">
      <g
         id="g18230">
        <g
           id="g18061">
          <g
             id="g17893">
            <g
               id="g17726">
              <g
                 id="g17560">
                <g
                   id="g17395">
                  <g
                     id="g17231">
                    <g
                       id="g17068">
                      <g
                         id="g16906">
                        <g
                           id="g16745">
                          <g
                             id="g16585">
                            <g
                               id="g16426">
                              <g
                                 id="g16268">
                                <g
                                   id="g16111">
                                <g
                                   id="g15955">
                                <g
                                   id="g15800">
                                <g
                                   id="g15646">
                                <g
                                   id="g15493">
                                <g
                                   id="g15341">
                                <g
                                   id="g15190">
                                <g
                                   id="g15040">
                                <g
                                   id="g14891">
                                <g
                                   id="g14743">
                                <g
                                   id="g14596">
                                <g
                                   id="g14450">
                                <g
                                   id="g14305">
                                <g
                                   id="g14161">
                                <g
                                   id="g14018">
                                <g
                                   id="g13876">
                                <g
                                   id="g13735">
                                <g
                                   id="g13595">
                                <g
                                   id="g13456">
                                <g
                                   id="g13318">
                                <g
                                   id="g13181">
                                <g
                                   id="g13045">
                                <g
                                   id="g12910">
                                <g
                                   id="g12776">
                                <g
                                   id="g12643">
                                <g
                                   id="g12511">
                                <g
                                   id="g12380">
                                <g
                                   id="g12250">
                                <g
                                   id="g12121">
                                <g
                                   id="g11993">
                                <g
                                   id="g11866">
                                <g
                                   id="g11740">
                                <g
                                   id="g11615">
                                <g
                                   id="g11491">
                                <g
                                   id="g11368">
                                <g
                                   id="g11246">
                                <g
                                   id="g11125">
                                <g
                                   id="g11005">
                                <g
                                   id="g10886">
                                <g
                                   id="g10768">
                                <g
                                   id="g10651">
                                <g
                                   id="g10535">
                                <g
                                   id="g10420">
                                <g
                                   id="g10306">
                                <g
                                   id="g10193">
                                <g
                                   id="g10081">
                                <g
                                   id="g9970">
                                <g
                                   id="g9860">
                                <g
                                   id="g9751">
                                <g
                                   id="g9643">
                                <g
                                   id="g9536">
                                <g
                                   id="g9430">
                                <g
                                   id="g9325">
                                <g
                                   id="g9221">
                                <g
                                   id="g9118">
                                <g
                                   id="g9016">
                                <g
                                   id="g8915">
                                <g
                                   id="g8815">
                                <g
                                   id="g8716">
                                <g
                                   id="g8618">
                                <g
                                   id="g8521">
                                <g
                                   id="g8425">
                                <g
                                   id="g8330">
                                <g
                                   id="g8236">
                                <g
                                   id="g8143">
                                <g
                                   id="g8051">
                                <g
                                   id="g7960">
                                <g
                                   id="g7870">
                                <g
                                   id="g7781">
                                <g
                                   id="g7693">
                                <g
                                   id="g7606">
                                <g
                                   id="g7520">
                                <g
                                   id="g7435">
                                <g
                                   id="g7351">
                                <g
                                   id="g7268">
                                <g
                                   id="g7186">
                                <g
                                   id="g7105">
                                <g
                                   id="g7025">
                                <g
                                   id="g6946">
                                <g
                                   id="g6868">
                                <g
                                   id="g6791">
                                <g
                                   id="g6715">
                                <g
                                   id="g6640">
                                <g
                                   id="g6566">
                                <g
                                   id="g6493">
                                <g
                                   id="g6421">
                                <g
                                   id="g6350">
                                <g
                                   id="g6280">
                                <g
                                   id="g6211">
                                <g
                                   id="g6143">
                                <g
                                   id="g6076">
                                <g
                                   id="g6010">
                                <g
                                   id="g5945">
                                <g
                                   id="g5881">
                                <g
                                   id="g5818">
                                <g
                                   id="g5756">
                                <g
                                   id="g5695">
                                <g
                                   id="g5635">
                                <g
                                   id="g5576">
                                <g
                                   id="g5518">
                                <g
                                   id="g5461">
                                <g
                                   id="g5405">
                                <g
                                   id="g5350">
                                <g
                                   id="g5296">
                                <g
                                   id="g5243">
                                <g
                                   id="g5191">
                                <g
                                   id="g5140">
                                <g
                                   id="g5090">
                                <g
                                   id="g5041">
                                <g
                                   id="g4993">
                                <g
                                   id="g4946">
                                <g
                                   id="g4900">
                                <g
                                   id="g4855">
                                <g
                                   id="g4811">
                                <g
                                   id="g4768">
                                <g
                                   id="g4726">
                                <g
                                   id="g4685">
                                <g
                                   id="g4645">
                                <g
                                   id="g4606">
                                <g
                                   id="g4568">
                                <g
                                   id="g4531">
                                <g
                                   id="g4495">
                                <g
                                   id="g4460">
                                <g
                                   id="g4426">
                                <g
                                   id="g4393">
                                <g
                                   id="g4361">
                                <g
                                   id="g4330">
                                <g
                                   id="g4300">
                                <g
                                   id="g4271">
                                <ellipse
                                   ry="26.509434"
                                   rx="230.51682"
                                   cy="921.54749"
                                   cx="379.00925"
                                   id="path4235"
                                   style="opacity:1;fill:#fffb70;fill-opacity:1;stroke:none;stroke-width:4;stroke-linecap:round;stroke-linejoin:round;stroke-miterlimit:4;stroke-dasharray:none;stroke-dashoffset:0;stroke-opacity:1" />
                                <path
                                   inkscape:connector-curvature="0"
                                   id="circle4231"
                                   d="m 369.81655,95.767531 c -192.82749,0 -349.188668,156.363189 -349.188668,349.190689 0,192.8275 156.361178,349.18868 349.188668,349.18868 192.8275,0 349.18868,-156.36118 349.18868,-349.18868 0,-192.8275 -156.36118,-349.190689 -349.18868,-349.190689 z m 0,4.13394 c 190.59335,0 345.05474,154.463399 345.05474,345.056749 0,190.59336 -154.46139,345.05474 -345.05474,345.05474 -190.59334,0 -345.054729,-154.46138 -345.054729,-345.05474 0,-190.59335 154.461389,-345.056749 345.054729,-345.056749 z"
                                   style="color:#000000;font-style:normal;font-variant:normal;font-weight:normal;font-stretch:normal;font-size:medium;line-height:normal;font-family:sans-serif;text-indent:0;text-align:start;text-decoration:none;text-decoration-line:none;text-decoration-style:solid;text-decoration-color:#000000;letter-spacing:normal;word-spacing:normal;text-transform:none;direction:ltr;block-progression:tb;writing-mode:lr-tb;baseline-shift:baseline;text-anchor:start;white-space:normal;clip-rule:nonzero;display:inline;overflow:visible;visibility:visible;opacity:1;isolation:auto;mix-blend-mode:normal;color-interpolation:sRGB;color-interpolation-filters:linearRGB;solid-color:#000000;solid-opacity:1;fill:#fffb70;fill-opacity:1;fill-rule:nonzero;stroke:none;stroke-width:4;stroke-linecap:round;stroke-linejoin:round;stroke-miterlimit:4;stroke-dasharray:none;stroke-dashoffset:0;stroke-opacity:1;color-rendering:auto;image-rendering:auto;shape-rendering:auto;text-rendering:auto;enable-background:accumulate" />
                                <path
                                   inkscape:connector-curvature="0"
                                   id="circle4225"
                                   d="m 369.81655,148.20679 c -163.82944,0 -296.749407,132.922 -296.749407,296.75143 0,163.82944 132.919967,296.74942 296.749407,296.74941 163.82945,0 296.75143,-132.91997 296.75143,-296.74941 0,-163.82943 -132.92198,-296.75143 -296.75143,-296.75143 z m 0,10.33485 c 158.24408,0 286.41659,128.17251 286.41659,286.41658 0,158.24407 -128.17251,286.41456 -286.41659,286.41456 -158.24407,0 -286.414559,-128.17049 -286.414559,-286.41456 0,-158.24407 128.170489,-286.41658 286.414559,-286.41658 z"
                                   style="color:#000000;font-style:normal;font-variant:normal;font-weight:normal;font-stretch:normal;font-size:medium;line-height:normal;font-family:sans-serif;text-indent:0;text-align:start;text-decoration:none;text-decoration-line:none;text-decoration-style:solid;text-decoration-color:#000000;letter-spacing:normal;word-spacing:normal;text-transform:none;direction:ltr;block-progression:tb;writing-mode:lr-tb;baseline-shift:baseline;text-anchor:start;white-space:normal;clip-rule:nonzero;display:inline;overflow:visible;visibility:visible;opacity:1;isolation:auto;mix-blend-mode:normal;color-interpolation:sRGB;color-interpolation-filters:linearRGB;solid-color:#000000;solid-opacity:1;fill:#fffb70;fill-opacity:1;fill-rule:nonzero;stroke:none;stroke-width:10;stroke-linecap:round;stroke-linejoin:round;stroke-miterlimit:4;stroke-dasharray:none;stroke-dashoffset:0;stroke-opacity:1;color-rendering:auto;image-rendering:auto;shape-rendering:auto;text-rendering:auto;enable-background:accumulate" />
                                <circle
                                   r="252.1205"
                                   cy="444.95752"
                                   cx="369.81683"
                                   id="path4223"
                                   style="opacity:1;fill:#fffb70;fill-opacity:1;stroke:none;stroke-width:5;stroke-linecap:round;stroke-linejoin:round;stroke-miterlimit:4;stroke-dasharray:none;stroke-dashoffset:0;stroke-opacity:1" />
                                <path
                                   id="path3336"
                                   transform="translate(-54.256108,24.901389)"
                                   d="M 371.59961 134.04883 C 356.44353 144.50237 383.59532 144.29764 387.41992 157.13867 C 394.29196 171.61571 393.04688 185.60642 388.67773 198.98633 C 323.2082 209.15468 270.1713 256.90804 252.32227 319.5 C 246.54361 317.33844 240.63118 315.55352 234.7168 313.82617 C 227.52946 310.15035 219.65027 308.85329 211.73047 308.00586 C 205.47958 306.54733 199.62731 308.32646 200.85938 315.71094 C 199.83168 324.72579 201.18593 333.89902 200.30664 342.9082 C 198.97571 351.15328 190.9229 356.01809 183.0957 356.41211 C 179.29561 356.35551 168.08585 356.9845 176.42773 361.08594 C 182.24232 362.95897 186.94115 367.57888 193.46484 366.95117 C 202.50221 366.84737 204.63549 356.08879 211.55859 352.24414 C 217.34004 347.05781 224.03583 342.97921 229.15234 337.06836 C 234.64139 331.74609 242.69465 334.08379 249.29297 331.89062 C 247.04439 342.88437 245.86133 354.26736 245.86133 365.92578 C 245.86133 396.47344 245.42604 447.35905 251.15625 502.11914 C 202.73881 534.28525 160.82286 554.51199 138.21289 608.01758 C 125.79868 602.40538 81.591824 595.68031 73.138672 610.8125 C 62.613157 630.28124 91.836022 613.68625 95.742188 622.05273 C 84.512866 630.40402 64.216654 642.67508 75.283203 658.7207 C 88.101154 664.38236 98.325451 635.06382 105.85156 644.71875 C 102.57384 656.47235 92.063432 678.59091 112.375 680.36328 C 124.14382 677.48469 122.31981 640.81058 141.0957 655.34375 C 149.55078 663.44969 154.64599 690.11245 169.95703 675.15039 C 180.66245 661.27515 170.25954 641.70446 155.14453 636.83398 C 150.08899 625.89298 160.53058 613.73868 164.6543 603.25977 C 182.50321 561.97986 219.58004 543.46818 253.3418 520.71875 C 260.8951 578.85058 276.04704 639.20057 306.43359 682.79297 C 280.39709 736.66992 272.4522 793.76432 308.2207 842.78516 C 318.24291 860.29994 306.41566 886.45315 284.70508 885.02148 C 271.53897 884.51165 238.80147 887.88263 243.55664 903.01953 C 275.57986 905.54312 307.88333 905.49602 339.81641 905.0957 C 365.65532 888.52926 337.73465 852.15676 323.85352 834.89844 C 285.30602 797.43885 296.7287 732.50923 324.67773 704.9082 C 348.89546 729.53686 380.54283 745.12001 421.91211 745.96094 C 477.24812 747.08577 515.45444 731.63099 541.55078 706.15234 C 568.60342 734.41493 579.13534 797.98932 541.1543 834.89844 C 527.27317 852.15676 499.3525 888.52926 525.19141 905.0957 C 557.12449 905.49602 589.42795 905.54312 621.45117 903.01953 C 626.20634 887.88263 593.46884 884.51165 580.30273 885.02148 C 558.59215 886.45315 546.76295 860.29994 556.78516 842.78516 C 592.16352 794.29902 584.77113 737.916 559.41211 684.55859 C 596.38873 629.18992 597.00788 545.81622 592.05859 474.66797 C 627.53069 496.99843 664.6625 509.95831 685.23242 552.49219 C 689.796 562.78716 704.98633 588.63215 700.39844 599.77734 C 685.50313 605.28325 675.93757 625.27588 687.2207 638.68555 C 703.15134 652.98612 707.11436 626.13235 715.21875 617.67578 C 733.36266 602.36089 733.09058 639.07917 744.9707 641.45703 C 765.18904 638.8265 753.75277 617.17268 749.98047 605.56836 C 757.09116 595.6035 768.54646 624.46477 781.11328 618.26562 C 791.49073 601.76597 770.69385 590.36262 759.12109 582.49414 C 762.66962 573.96981 792.56868 589.31436 781.22852 570.30859 C 772.14242 555.54778 736.72412 573.0197 724.55859 579.15234 C 697.97592 523.00129 649.18728 488.16603 595.00781 454.01562 C 593.18147 451.98714 591.54513 450.55707 590.08984 449.62305 C 587.16423 415.76562 583.76953 386.17314 583.76953 365.92578 C 583.76953 343.52224 579.39913 322.14233 571.48047 302.57812 C 578.54515 303.23316 585.896 298.70296 592.68555 302.53516 C 599.13255 306.95703 606.64213 309.20724 613.54883 312.75977 C 621.22006 314.72518 626.01043 324.59137 634.7793 322.40234 C 641.24921 321.35694 644.62496 315.69901 649.77539 312.41406 C 656.80613 306.33318 645.80241 308.56267 642.14062 309.58008 C 634.46892 311.18178 625.44655 308.51591 622.07031 300.87695 C 618.93741 292.3844 617.9244 283.16747 614.64648 274.70703 C 613.96765 267.25131 607.85521 267.01332 602.17773 270.00781 C 594.73096 272.83392 587.43574 276.08426 581.41406 281.46094 C 576.30054 284.52806 571.20269 287.64497 566.30859 291.06445 C 539.67418 237.2687 485.23822 199.69747 421.77539 197.125 C 418.15419 187.97624 412.43662 178.82346 409.20508 173.13086 C 396.94246 155.05485 390.36687 136.3067 371.59961 134.04883 z "
                                   style="opacity:1;fill:#58f48f;fill-opacity:1;stroke:none;stroke-width:32;stroke-linecap:round;stroke-linejoin:round;stroke-miterlimit:4;stroke-dasharray:none;stroke-dashoffset:0;stroke-opacity:1" />
                                <path
                                   inkscape:connector-curvature="0"
                                   id="path4436"
                                   d="m 370.3418,339.17162 c -4.82978,0.0194 -9.70132,0.2285 -14.60157,0.63634 -39.14929,3.25834 -74.72866,18.10326 -99.72265,40.04249 -24.99399,21.93921 -39.49697,51.46586 -34.91406,82.96874 4.18907,28.79574 22.86953,48.59913 49.52148,59.59255 26.65195,10.99343 61.39429,13.92423 100.05859,10.70623 38.61168,-3.2136 72.44402,-11.19433 97.10352,-26.14647 24.6595,-14.95215 40.06558,-37.69464 39.76562,-67.99461 -0.3038,-30.68793 -19.15274,-57.3314 -47.16992,-75.16451 -24.51503,-15.60398 -56.2326,-24.77684 -90.04101,-24.64076 z m 0.0371,10.37997 c 32.03991,-0.10855 62.06052,8.6485 84.77539,23.10666 25.95984,16.52361 42.1396,40.08331 42.40039,66.42606 0.26462,26.73072 -12.28506,45.26846 -34.8125,58.92784 -22.52744,13.65938 -55.11375,21.62098 -92.85742,24.76234 -37.69104,3.13699 -71.14654,0.0669 -95.56446,-10.00505 -24.41792,-10.07192 -39.67822,-26.39773 -43.33008,-51.50056 -3.98433,-27.38826 8.38078,-53.21508 31.48633,-73.49668 23.10556,-20.28158 56.85646,-34.52415 94.0625,-37.62076 4.64418,-0.38652 9.26272,-0.58435 13.83985,-0.59985 z"
                                   style="color:#000000;font-style:normal;font-variant:normal;font-weight:normal;font-stretch:normal;font-size:medium;line-height:normal;font-family:sans-serif;text-indent:0;text-align:start;text-decoration:none;text-decoration-line:none;text-decoration-style:solid;text-decoration-color:#000000;letter-spacing:normal;word-spacing:normal;text-transform:none;direction:ltr;block-progression:tb;writing-mode:lr-tb;baseline-shift:baseline;text-anchor:start;white-space:normal;clip-rule:nonzero;display:inline;overflow:visible;visibility:visible;opacity:1;isolation:auto;mix-blend-mode:normal;color-interpolation:sRGB;color-interpolation-filters:linearRGB;solid-color:#000000;solid-opacity:1;fill:#526346;fill-opacity:1;fill-rule:nonzero;stroke:none;stroke-width:10;stroke-linecap:round;stroke-linejoin:round;stroke-miterlimit:4;stroke-dasharray:none;stroke-dashoffset:0;stroke-opacity:1;color-rendering:auto;image-rendering:auto;shape-rendering:auto;text-rendering:auto;enable-background:accumulate" />
                                <path
                                   sodipodi:nodetypes="aszsa"
                                   inkscape:connector-curvature="0"
                                   id="path4146"
                                   d="m 226.04672,460.42106 c 7.84093,51.94591 67.88254,69.63968 144.23788,63.51493 76.35535,-6.12472 132.83385,-30.73003 132.26927,-85.69457 -0.56459,-54.96453 -70.05867,-96.76868 -146.41401,-90.64394 -76.35534,6.12473 -138.66038,56.06599 -130.09314,112.82358 z"
                                   style="opacity:1;fill:#ff4900;fill-opacity:1;stroke:none;stroke-width:32;stroke-linecap:round;stroke-linejoin:round;stroke-miterlimit:4;stroke-dasharray:none;stroke-dashoffset:0;stroke-opacity:1" />
                                <path
                                   sodipodi:nodetypes="csccccccccccccc"
                                   inkscape:connector-curvature="0"
                                   id="path4200"
                                   d="m 377.26884,416.98449 c -6.1478,13.95824 -0.96724,29.17866 4.26839,43.36497 2.57657,6.98135 -9.48545,10.89723 -16.1395,9.60499 -5.72295,-0.6415 -10.65985,-5.85506 -9.96561,-11.77604 0.26126,-11.86481 7.50154,-23.24053 4.16757,-35.20837 -1.22067,-5.68035 -6.45407,-10.67813 -12.52753,-9.86606 -7.19325,0.77041 -13.60342,5.89052 -16.57596,12.39507 -8.58982,10.2622 -17.10855,22.31719 -17.0001,36.27509 0.2854,9.94616 5.06133,19.70657 13.12857,25.64061 6.45315,5.05325 14.03152,8.41926 21.70192,11.16763 15.15024,-0.37862 30.95136,0.59231 45.2404,-5.38472 9.38597,-4.87271 13.86916,-15.71029 13.93834,-25.8724 0.15504,-6.38521 -1.05522,-12.69462 -2.00901,-18.97515 -2.70384,-12.21882 -10.11288,-23.0258 -19.48426,-31.15044 -2.63476,-1.40498 -6.91771,-4.43552 -8.74325,-0.21518 z"
                                   style="fill:#414d2f;fill-opacity:1;fill-rule:evenodd;stroke:none;stroke-width:0.27386254px;stroke-linecap:butt;stroke-linejoin:miter;stroke-opacity:1" />
                                <path
                                   inkscape:connector-curvature="0"
                                   id="path4184"
                                   d="m 320.46337,478.09914 c 3.84935,-0.12845 7.88865,1.01169 12.11763,3.88694 24.36143,12.33587 29.15772,12.35617 51.80035,-5.66264 22.5788,-7.78796 52.19222,7.36962 61.80196,31.57591 -0.14722,0.26238 -0.30673,0.5138 -0.46353,0.76735 -21.06139,8.09381 -46.8552,12.97585 -75.43526,15.26836 -35.25902,2.82825 -67.03365,0.57382 -91.80162,-7.78325 2.14931,-3.59917 4.92582,-6.88877 8.17971,-9.45923 8.7448,-11.50135 20.05311,-28.13475 33.80076,-28.59347 z"
                                   style="fill:#d41915;fill-opacity:1;fill-rule:evenodd;stroke:none;stroke-width:1px;stroke-linecap:butt;stroke-linejoin:miter;stroke-opacity:1" />
                                <path
                                   transform="translate(-54.256108,24.901389)"
                                   id="rect4151"
                                   d="M 425.35156 322.10742 C 421.07397 322.10629 416.76077 322.25247 412.42383 322.55273 L 409.81641 347.74609 C 409.42798 351.50271 415.85182 355.22473 424.21875 356.08984 L 443.99219 358.13281 C 451.16016 358.87394 457.34471 357.26614 459.21875 354.42969 C 460.8504 356.25448 463.45689 358.07331 466.63672 359.44141 L 481.33789 365.76562 C 487.55897 368.4422 493.5346 368.34981 494.73633 365.55664 L 505.21289 341.20898 C 493.81939 335.09817 481.01239 330.26802 467.28711 326.99219 L 460.95117 341.71875 L 462.58398 325.93359 C 450.69756 323.44232 438.18434 322.11082 425.35156 322.10742 z M 398.17188 324.07227 C 380.8727 326.56156 364.49381 331.29251 349.73828 337.81055 L 359.16797 364.61328 C 360.42115 368.17594 367.81898 368.79504 375.75391 366.00391 L 394.50586 359.41016 C 402.44082 356.61901 407.81958 351.50407 406.56641 347.94141 L 398.17188 324.07227 z M 505.44727 341.33594 L 498.14453 368.17578 C 497.34635 371.10985 501.96506 374.90386 508.5 376.68164 L 523.94531 380.88281 C 530.48023 382.66061 536.38344 381.72901 537.18164 378.79492 L 539.85547 368.96484 C 531.09975 358.18987 519.32678 348.81446 505.44727 341.33594 z M 340.37305 342.30078 C 327.74114 348.85281 316.55079 356.76924 307.32422 365.7207 L 320.13477 385.86328 C 321.76637 388.42918 327.6777 387.5676 333.39258 383.93359 L 346.90039 375.3457 C 352.61527 371.7117 355.90113 366.72019 354.26953 364.1543 L 340.37305 342.30078 z M 306.84375 366.1875 C 294.54321 378.25821 285.79533 392.17771 281.85547 407.13281 C 284.29495 408.31179 288.95552 407.81887 293.74219 405.64844 L 308.31836 399.03906 C 314.48636 396.24234 318.44124 391.76151 317.18555 388.99219 L 306.84375 366.1875 z M 544.19922 444.5 C 543.5617 444.50224 542.89076 444.54228 542.19336 444.62109 C 540.51959 444.81029 538.69435 445.22198 536.83203 445.86719 L 521.71094 451.10742 C 515.31168 453.32445 510.96162 457.42175 511.95703 460.29492 L 517.31445 475.75781 C 530.69249 468.33685 541.16434 459.05565 547.95703 447.67383 C 548.24898 446.94643 548.5385 446.21743 548.80664 445.48242 C 547.71886 444.82682 546.11178 444.49327 544.19922 444.5 z M 297.59961 447.78125 C 297.27798 447.7802 296.96618 447.78917 296.66406 447.80859 C 294.24707 447.96403 292.48949 448.7732 291.95703 450.19727 L 288.64062 459.06641 C 295.87664 471.04526 307.12403 480.19737 321.46094 486.79297 L 329.84766 464.36328 C 330.91256 461.51513 326.66384 457.31126 320.32031 454.93945 L 305.32812 449.33789 C 302.55284 448.30022 299.85101 447.78863 297.59961 447.78125 z M 504.66016 461.30078 C 504.37706 461.29391 504.08355 461.29862 503.78125 461.31445 C 501.36285 461.44112 498.36415 462.29362 495.35156 463.83984 L 481.11133 471.14648 C 475.08619 474.23895 471.35567 478.90614 472.74414 481.61133 L 477.45898 490.79883 C 491.79258 487.19933 504.66355 482.52325 515.66602 476.64648 L 508.73242 463.13867 C 508.12497 461.95516 506.64183 461.34889 504.66016 461.30078 z M 337.33203 465.54883 C 336.97198 465.54154 336.62867 465.55092 336.30078 465.58008 C 334.72694 465.72006 333.54906 466.28365 333.00391 467.28516 L 322.19922 487.13281 C 333.76557 492.3448 347.31856 495.90015 362.35547 497.97461 L 364.44727 494.13281 L 363.65234 498.1582 C 379.22163 500.20501 396.36678 500.66009 414.56836 499.68555 L 415.92188 492.83789 C 416.65448 489.13299 410.6014 484.83479 402.34961 483.20312 L 382.84766 479.34961 C 375.77837 477.95177 369.47094 478.9829 367.34375 481.63477 C 365.887 479.66753 363.46029 477.6179 360.41992 475.96289 L 346.36133 468.31055 C 343.10838 466.53982 339.85236 465.59987 337.33203 465.54883 z M 459.4082 476.82617 C 458.75949 476.81339 458.0871 476.8282 457.39453 476.86914 C 455.54769 476.97833 453.56104 477.28077 451.52148 477.79297 L 432.24219 482.63281 C 424.08398 484.68161 418.25393 489.28049 419.17383 492.94336 L 420.77148 499.30078 C 422.02728 499.21232 423.2761 499.13462 424.54102 499.0332 C 441.02613 497.71088 456.57593 495.52409 470.83398 492.35938 L 467.9082 480.70508 C 467.30453 478.3013 463.94921 476.91562 459.4082 476.82617 z "
                                   style="opacity:1;fill:#ffffa0;fill-opacity:1;stroke:none;stroke-width:32;stroke-linecap:round;stroke-linejoin:round;stroke-miterlimit:4;stroke-dasharray:none;stroke-dashoffset:0;stroke-opacity:1" />
                                <path
                                   inkscape:connector-curvature="0"
                                   id="path4428"
                                   d="m 442.09735,155.84698 c -1.56386,0.115 -2.85889,0.90546 -3.64094,1.64453 -1.5641,1.47815 -1.97931,2.80791 -2.45755,4.19098 -0.47824,1.38308 -0.83052,2.85555 -1.14822,4.42247 -0.63538,3.13383 -1.10364,6.63956 -1.53896,9.68943 -0.43534,3.04987 -0.97278,5.88788 -1.12599,6.3411 l -0.10187,0.29816 -0.0593,0.31113 c -3.29702,16.87529 -17.50281,34.7953 -22.36421,51.92514 -1.46039,5.14587 -0.19086,10.36287 2.78719,13.89522 2.97804,3.53235 7.1971,5.60953 11.7377,6.76334 9.08119,2.30764 19.98057,1.19768 27.82748,-4.82804 l 0.56114,-0.43151 0.41113,-0.57781 c 9.3012,-13.05508 8.80508,-30.26999 6.23184,-44.1247 l -0.0445,-0.24076 -0.0686,-0.23334 c -4.01364,-13.61736 -6.42439,-27.813 -9.24311,-42.1394 l -0.11668,-0.59263 -0.26297,-0.54448 c -0.87716,-1.82541 -1.59105,-3.27667 -3.44464,-4.61136 -0.92679,-0.66735 -2.37525,-1.27248 -3.93911,-1.15747 z m 0.73893,20.40855 c 1.97993,10.27843 4.054,20.62038 7.06706,30.92396 2.26752,12.27216 2.12141,26.54004 -4.21876,36.09461 -4.72627,3.28041 -13.02634,4.42464 -19.16403,2.86498 -3.17461,-0.80671 -5.61713,-2.25335 -6.82446,-3.68539 -1.20731,-1.43204 -1.64583,-2.62094 -0.91486,-5.19659 3.904,-13.75629 18.57075,-32.32956 22.54941,-52.69369 l -0.16297,0.60928 c 0.80063,-2.36832 1.08714,-4.93871 1.52971,-8.03933 0.0425,-0.29763 0.096,-0.57581 0.1389,-0.87783 z"
                                   style="color:#000000;font-style:normal;font-variant:normal;font-weight:normal;font-stretch:normal;font-size:medium;line-height:normal;font-family:sans-serif;text-indent:0;text-align:start;text-decoration:none;text-decoration-line:none;text-decoration-style:solid;text-decoration-color:#000000;letter-spacing:normal;word-spacing:normal;text-transform:none;direction:ltr;block-progression:tb;writing-mode:lr-tb;baseline-shift:baseline;text-anchor:start;white-space:normal;clip-rule:nonzero;display:inline;overflow:visible;visibility:visible;opacity:1;isolation:auto;mix-blend-mode:normal;color-interpolation:sRGB;color-interpolation-filters:linearRGB;solid-color:#000000;solid-opacity:1;fill:#bd693e;fill-opacity:1;fill-rule:evenodd;stroke:none;stroke-width:10;stroke-linecap:butt;stroke-linejoin:miter;stroke-miterlimit:4;stroke-dasharray:none;stroke-dashoffset:0;stroke-opacity:1;color-rendering:auto;image-rendering:auto;shape-rendering:auto;text-rendering:auto;enable-background:accumulate" />
                                <path
                                   sodipodi:nodetypes="zccccz"
                                   inkscape:connector-curvature="0"
                                   id="path4242"
                                   d="m 413.08895,237.5927 c -4.62212,16.28669 23.6608,21.46273 36.81049,11.36494 8.49863,-11.92862 8.31729,-28.77865 5.72791,-42.72029 -4.34472,-14.74062 -6.90227,-29.86729 -9.8577,-44.88857 -6.0791,-12.65095 -6.986,15.12512 -8.99791,21.07647 -3.83657,19.63688 -19.06067,38.88076 -23.68279,55.16745 z"
                                   style="fill:#fcc852;fill-opacity:1;fill-rule:evenodd;stroke:none;stroke-width:1px;stroke-linecap:butt;stroke-linejoin:miter;stroke-opacity:1" />
                                <path
                                   inkscape:connector-curvature="0"
                                   id="path4430"
                                   d="m 237.6271,172.18985 c -0.67359,-0.0536 -1.40828,-5.6e-4 -2.14269,0.231 -1.46881,0.46314 -2.57071,1.54265 -3.174,2.48827 -1.20658,1.89126 -1.33236,3.47421 -1.46967,5.45857 l -0.0401,0.59296 0.10914,0.58387 c 2.63204,14.09694 5.58776,27.92555 6.87185,41.80952 l 0.0218,0.23828 0.0473,0.23647 c 2.68471,13.57735 8.4844,29.46472 21.71419,37.9989 l 0.58567,0.37834 0.66937,0.18917 c 9.34928,2.6481 19.69702,-0.29775 27.14546,-5.70229 3.72421,-2.70228 6.81987,-6.13001 8.25422,-10.43511 1.43436,-4.30511 0.69907,-9.5276 -2.50282,-13.69278 -10.65861,-13.86523 -30.13168,-25.05634 -39.27033,-39.25759 l -0.16733,-0.26193 -0.20009,-0.23645 c -0.30445,-0.35791 -1.8253,-2.7518 -3.33043,-5.37671 -1.50513,-2.6249 -3.20743,-5.65447 -4.92561,-8.28332 -0.85909,-1.31443 -1.71499,-2.52766 -2.6538,-3.616 -0.93882,-1.08835 -1.80095,-2.15326 -3.76515,-2.93391 -0.49105,-0.19517 -1.10348,-0.35562 -1.77708,-0.40926 z m 4.59639,19.12223 c 0.14899,0.2602 0.29864,0.49487 0.44563,0.75122 1.53018,2.66858 2.7254,4.91062 4.31627,6.7809 l -0.36923,-0.49838 c 11.028,17.13724 31.15827,28.75959 39.71779,39.89421 1.60263,2.08479 1.63283,3.32762 1.05132,5.07295 -0.58149,1.74532 -2.2854,3.95302 -4.88924,5.84234 -5.03299,3.65193 -13.01949,5.62376 -18.5238,4.34903 -9.25772,-6.41539 -14.57619,-19.3838 -16.965,-31.40716 -0.99347,-10.49645 -2.85677,-20.68687 -4.78374,-30.78511 z"
                                   style="color:#000000;font-style:normal;font-variant:normal;font-weight:normal;font-stretch:normal;font-size:medium;line-height:normal;font-family:sans-serif;text-indent:0;text-align:start;text-decoration:none;text-decoration-line:none;text-decoration-style:solid;text-decoration-color:#000000;letter-spacing:normal;word-spacing:normal;text-transform:none;direction:ltr;block-progression:tb;writing-mode:lr-tb;baseline-shift:baseline;text-anchor:start;white-space:normal;clip-rule:nonzero;display:inline;overflow:visible;visibility:visible;opacity:1;isolation:auto;mix-blend-mode:normal;color-interpolation:sRGB;color-interpolation-filters:linearRGB;solid-color:#000000;solid-opacity:1;fill:#bd693e;fill-opacity:1;fill-rule:evenodd;stroke:none;stroke-width:10;stroke-linecap:butt;stroke-linejoin:miter;stroke-miterlimit:4;stroke-dasharray:none;stroke-dashoffset:0;stroke-opacity:1;color-rendering:auto;image-rendering:auto;shape-rendering:auto;text-rendering:auto;enable-background:accumulate" />
                                <path
                                   style="fill:#fcc852;fill-opacity:1;fill-rule:evenodd;stroke:none;stroke-width:1px;stroke-linecap:butt;stroke-linejoin:miter;stroke-opacity:1"
                                   d="m 291.95547,236.7035 c 10.31809,13.42227 -14.04486,28.69188 -29.99682,24.17362 -12.30785,-7.93947 -18.37148,-23.66171 -21.12211,-37.57244 -1.41527,-15.30227 -4.63378,-30.30222 -7.44363,-45.35141 0.969,-14.00225 12.08475,11.46877 16.15512,16.25398 10.82734,16.82543 32.08935,29.07399 42.40744,42.49625 z"
                                   id="path4250"
                                   inkscape:connector-curvature="0"
                                   sodipodi:nodetypes="zccccz" />
                                <circle
                                   r="21.920311"
                                   cy="312.02139"
                                   cx="267.99347"
                                   id="path4440"
                                   style="opacity:1;fill:#bd693e;fill-opacity:1;stroke:#333333;stroke-width:5;stroke-linecap:round;stroke-linejoin:round;stroke-miterlimit:4;stroke-dasharray:none;stroke-dashoffset:0;stroke-opacity:1" />
                                <circle
                                   style="opacity:1;fill:#bd693e;fill-opacity:1;stroke:#333333;stroke-width:5;stroke-linecap:round;stroke-linejoin:round;stroke-miterlimit:4;stroke-dasharray:none;stroke-dashoffset:0;stroke-opacity:1"
                                   id="circle4442"
                                   cx="437.6991"
                                   cy="300.70767"
                                   r="21.920311" />
                                <path
                                   d="m 280,312.36221 a 12,12 0 0 1 -7.89615,11.27646 12,12 0 0 1 -13.29692,-3.56365 12,12 0 0 1 -1.19861,-13.71389 12,12 0 0 1 12.4771,-5.81632 L 268,312.36221 Z"
                                   sodipodi:end="4.8870612"
                                   sodipodi:start="0"
                                   sodipodi:ry="12"
                                   sodipodi:rx="12"
                                   sodipodi:cy="312.36221"
                                   sodipodi:cx="268"
                                   sodipodi:type="arc"
                                   id="path4444"
                                   style="opacity:1;fill:#ffffff;fill-opacity:1;stroke:none;stroke-width:5;stroke-linecap:round;stroke-linejoin:round;stroke-miterlimit:4;stroke-dasharray:none;stroke-dashoffset:0;stroke-opacity:1" />
                                <path
                                   style="opacity:1;fill:#ffffff;fill-opacity:1;stroke:none;stroke-width:5;stroke-linecap:round;stroke-linejoin:round;stroke-miterlimit:4;stroke-dasharray:none;stroke-dashoffset:0;stroke-opacity:1"
                                   id="path4448"
                                   sodipodi:type="arc"
                                   sodipodi:cx="437"
                                   sodipodi:cy="300.36221"
                                   sodipodi:rx="12"
                                   sodipodi:ry="12"
                                   sodipodi:start="0"
                                   sodipodi:end="4.8870612"
                                   d="m 449,300.36221 a 12,12 0 0 1 -7.89615,11.27646 12,12 0 0 1 -13.29692,-3.56365 12,12 0 0 1 -1.19861,-13.71389 12,12 0 0 1 12.4771,-5.81632 L 437,300.36221 Z" />
                                <ellipse
                                   transform="matrix(0.89574541,0.44456739,-0.44456739,0.89574541,0,0)"
                                   ry="26.870056"
                                   rx="16.970562"
                                   cy="239.6888"
                                   cx="366.8334"
                                   id="path3356"
                                   style="opacity:1;fill:#dad525;fill-opacity:1;stroke:none;stroke-width:5;stroke-linecap:round;stroke-linejoin:round;stroke-miterlimit:4;stroke-dasharray:none;stroke-dashoffset:0;stroke-opacity:1" />
                                <ellipse
                                   style="opacity:1;fill:#dad525;fill-opacity:1;stroke:none;stroke-width:5;stroke-linecap:round;stroke-linejoin:round;stroke-miterlimit:4;stroke-dasharray:none;stroke-dashoffset:0;stroke-opacity:1"
                                   id="ellipse3358"
                                   cx="-148.0416"
                                   cy="589.43457"
                                   rx="16.970562"
                                   ry="26.870056"
                                   transform="matrix(-0.76629939,0.64248365,0.64248365,0.76629939,0,0)" />
                                <path
                                   id="path3357"
                                   transform="translate(-54.256108,24.901389)"
                                   d="M 586.5 410.21484 C 562.32781 475.43948 513.15163 519.38529 416.35547 521.16797 C 320.14201 522.93993 271.41264 489.44951 246.74023 437.00977 C 247.04514 445.53482 247.44597 454.36286 247.99609 463.45703 C 269.45782 521.56862 315.89842 559.7904 416.29492 557.94141 C 522.17795 555.99137 568.58243 501.37826 587.75977 423.88477 C 587.33378 419.30096 586.88955 414.54004 586.5 410.21484 z M 608.75 462.80469 C 605.91582 467.79749 603.4214 473.59695 601.29102 480.26562 C 605.64638 482.83303 609.99574 485.32807 614.32031 487.78711 C 616.1234 481.36376 618.23089 475.66969 620.61133 470.625 C 616.69936 467.9999 612.74637 465.39332 608.75 462.80469 z M 592.24219 477.36133 C 567.61326 540.65072 518.47959 583.05803 423.42773 584.80859 C 322.28515 586.67132 273.61625 549.56613 250.20703 492.44336 C 251.14273 502.54798 252.2827 512.81557 253.66211 523.15039 C 274.47321 583.471 320.71529 623.47255 423.36719 621.58203 C 526.38604 619.68472 573.09991 567.93515 593.21484 493.76367 C 592.93287 488.23993 592.60574 482.76818 592.24219 477.36133 z M 635.29297 480.74219 C 633.64784 485.2694 632.18414 490.22868 630.92773 495.6875 C 630.80657 496.21391 630.7064 496.72552 630.59375 497.24609 C 635.11135 499.97123 639.55274 502.772 643.85547 505.75391 C 644.22235 503.63878 644.65472 501.4786 645.16406 499.26562 C 645.9264 495.95347 646.7665 492.82586 647.66797 489.84766 C 643.6171 486.7629 639.48845 483.73197 635.29297 480.74219 z M 656.77344 496.98242 C 656.6006 497.68624 656.42367 498.38095 656.25781 499.10156 C 655.10724 504.10051 654.34816 508.83065 653.94141 513.31836 C 658.78572 517.26666 663.40543 521.55544 667.7207 526.34766 C 667.6522 520.58815 668.20924 514.39599 669.45117 507.73438 C 665.33577 504.06438 661.10798 500.48395 656.77344 496.98242 z M 231.88867 514.625 C 227.57944 517.38759 223.26421 520.17605 219.10742 522.875 C 220.62652 527.9341 222.7336 533.26613 225.49609 538.9043 C 229.70147 536.11993 233.94421 533.37684 238.19336 530.63672 C 235.48895 525.01879 233.40099 519.68787 231.88867 514.625 z M 210.0957 528.79102 C 205.78014 531.67874 201.56827 534.58166 197.46875 537.54297 C 199.02763 542.78672 201.20976 548.32121 204.10938 554.18945 C 208.10071 551.0266 212.21095 548.00393 216.40234 545.07227 C 213.67647 539.35431 211.58381 533.93279 210.0957 528.79102 z M 182.57617 549.08984 C 178.43689 552.56076 174.44773 556.16461 170.63477 559.9668 C 172.6548 565.86833 175.48769 572.14653 179.16602 578.82227 C 182.49104 574.54908 186.0567 570.55935 189.82227 566.80469 C 186.66895 560.5556 184.28425 554.66552 182.57617 549.08984 z M 592.17578 578.53516 C 565.32287 631.10141 517.02426 665.26452 431.91211 666.83203 C 341.37668 668.4994 292.88746 638.94241 266.92188 591.75586 C 272.86338 614.19284 280.46768 635.77227 290.22656 655.31055 C 317.55575 686.48039 361.42694 704.90247 431.85156 703.60547 C 514.454 702.08419 560.85431 668.50874 586.37305 617.02734 C 589.05694 604.55695 590.92784 591.64962 592.17578 578.53516 z M 299.15234 699.13672 C 296.94765 704.55562 294.94703 709.99431 293.17773 715.44336 C 296.59015 718.58667 300.39321 721.73746 304.63281 724.89648 C 306.07959 725.97451 307.51419 726.98992 308.94141 727.96484 C 311.27953 722.93282 313.97964 718.25094 316.97852 714.03516 C 316.14464 713.44266 315.3129 712.85655 314.47266 712.23047 C 308.59562 707.85136 303.52266 703.48773 299.15234 699.13672 z M 565.85547 699.13672 C 561.48515 703.48773 556.4122 707.85136 550.53516 712.23047 C 549.69492 712.85655 548.86318 713.44266 548.0293 714.03516 C 551.02818 718.25094 553.72829 722.93282 556.06641 727.96484 C 557.49363 726.98992 558.92822 725.97451 560.375 724.89648 C 564.6146 721.73746 568.41766 718.58667 571.83008 715.44336 C 570.06078 709.99431 568.06016 704.55562 565.85547 699.13672 z M 289.61328 727.68359 C 288.07531 733.63388 286.84405 739.58487 285.93164 745.52344 C 287.27187 746.59254 288.64271 747.6614 290.08008 748.73242 C 293.61568 751.36687 297.09093 753.6863 300.51172 755.7168 C 301.42318 750.07695 302.76552 744.57374 304.48438 739.31055 C 302.97251 738.27909 301.4528 737.20859 299.91992 736.06641 C 296.162 733.2663 292.74541 730.47168 289.61328 727.68359 z M 575.39453 727.68359 C 572.2624 730.47168 568.84581 733.2663 565.08789 736.06641 C 563.55501 737.20859 562.0353 738.27909 560.52344 739.31055 C 562.24229 744.57374 563.58463 750.07695 564.49609 755.7168 C 567.91688 753.6863 571.39213 751.36687 574.92773 748.73242 C 576.3651 747.6614 577.73594 746.59254 579.07617 745.52344 C 578.16376 739.58487 576.9325 733.63388 575.39453 727.68359 z M 284.09961 768.89453 C 284.11301 775.49438 284.59143 782.05436 285.58984 788.55273 C 291.08943 791.48322 296.44222 793.64802 301.66211 795.125 C 300.32621 789.46231 299.5362 783.69255 299.24805 777.91797 C 294.31407 775.51772 289.26754 772.52169 284.09961 768.89453 z M 580.9082 768.89453 C 575.74027 772.52169 570.69375 775.51772 565.75977 777.91797 C 565.47162 783.69255 564.6816 789.46231 563.3457 795.125 C 568.56559 793.64802 573.91838 791.48322 579.41797 788.55273 C 580.41638 782.05436 580.8948 775.49438 580.9082 768.89453 z "
                                   style="opacity:1;fill:#de3733;fill-opacity:1;stroke:none;stroke-width:5;stroke-linecap:round;stroke-linejoin:round;stroke-miterlimit:4;stroke-dasharray:none;stroke-dashoffset:0;stroke-opacity:1" />
                                <path
                                   inkscape:connector-curvature="0"
                                   id="path4182"
                                   d="m 275.02344,866.69922 c -6.76288,1.71726 -13.64063,2.72417 -20.36328,2.31055 8.72412,17.47653 -3.03871,42.31023 -24.21094,40.91406 -13.16611,-0.50983 -45.90361,2.86114 -41.14844,17.99805 32.02322,2.52359 64.32473,2.47649 96.25781,2.07617 22.7741,-14.60146 3.79424,-44.57346 -10.53515,-63.29883 z"
                                   style="fill:#414d2f;fill-opacity:1;fill-rule:evenodd;stroke:none;stroke-width:1px;stroke-linecap:butt;stroke-linejoin:miter;stroke-opacity:1" />
                                <path
                                   inkscape:connector-curvature="0"
                                   style="fill:#414d2f;fill-opacity:1;fill-rule:evenodd;stroke:none;stroke-width:1px;stroke-linecap:butt;stroke-linejoin:miter;stroke-opacity:1"
                                   d="m 481.4718,866.69922 c 6.76288,1.71726 13.64063,2.72417 20.36328,2.31055 -8.72412,17.47653 3.03871,42.31023 24.21094,40.91406 13.16611,-0.50983 45.90361,2.86114 41.14844,17.99805 -32.02322,2.52359 -64.32473,2.47649 -96.25781,2.07617 -22.7741,-14.60146 -3.79424,-44.57346 10.53515,-63.29883 z"
                                   id="path4203" />
                                <g
                                   transform="matrix(0.08386825,0,0,0.08386825,482.82053,514.02695)"
                                   id="g4266">
                                <path
                                   style="opacity:1;fill:#58f48f;fill-opacity:1;stroke:none;stroke-width:4;stroke-linecap:round;stroke-linejoin:round;stroke-miterlimit:4;stroke-dasharray:none;stroke-dashoffset:0;stroke-opacity:1"
                                   id="path4260"
                                   d="m 851.63384,321.07591 c 3.74538,20.74113 4.12833,41.95373 4.66769,62.97161 0.65369,28.35656 0.20131,56.72973 -1.4253,85.04521 -0.93363,11.76307 -1.26783,23.60181 -3.06772,35.278 -0.68573,-1.10346 0.0257,2.42952 -0.74521,2.25267 -6.39498,-1.46709 -13.21988,-1.998 -19.02094,-5.06326 -1.30786,-0.69107 1.5048,-2.57221 2.5006,-3.66604 2.63173,-2.89082 4.71054,-3.48452 8.21497,-5.24494 1.86553,-0.53011 3.69969,-1.18659 5.59658,-1.59033 8.94648,-1.9042 18.36733,-1.54512 27.41343,-1.4826 6.90955,0.0478 9.35093,0.22745 16.21866,0.54501 9.50993,0.38495 21.70237,1.75675 27.07254,1.88062 10.77687,-0.37269 21.55672,-0.53864 32.34035,-0.64343 10.4645,0.21858 20.892,0.10554 31.3428,-0.45156 10.3292,-1.0122 20.70261,0.0213 31.00091,0.91509 4.7126,0.85295 9.5472,1.21916 14.3292,0.85094 2.3567,-0.20272 4.7158,-0.4254 7.081,-0.50394 0.962,-0.0319 1.9496,-0.24819 2.8873,-0.0312 3.1578,0.73084 -8.8529,-0.53248 -0.59,0.27629 10.2251,-1.05412 2.493,29.14541 -4.4603,14.0753 -0.7759,-1.68151 -0.6906,-3.63879 -1.0359,-5.45819 0.032,-0.75824 -0.01,-1.52292 0.096,-2.2747 0.33,-2.39035 0.7321,-2.90705 1.1078,-5.10386 0.5037,-2.94483 0.4711,-5.98086 0.539,-8.95437 -0.4756,-13.44541 -1.6503,-26.84076 -1.9368,-40.29713 -0.1109,-11.88163 0.8437,-23.73343 1.1348,-35.60651 0.01,-11.07021 -0.3911,-22.13389 -0.2838,-33.20594 -0.1542,-11.24972 -0.039,-22.49902 0.2397,-33.74555 -0.1216,-6.05262 0.7176,-12.03283 1.316,-18.02815 0.3303,-2.81808 -0.2548,-5.5535 0.01,-8.38341 0.4042,3.04255 0.4405,4.62631 3.8146,7.59391 1.4096,1.23976 4.6178,-0.0457 5.3782,1.67059 0.583,1.31597 -2.8041,0.65119 -4.2071,0.97255 -9.9438,2.27762 -5.0076,1.23712 -16.6974,3.33512 -22.68231,3.51324 -45.61051,4.49078 -68.51571,3.55154 -12.06264,0.22305 -23.9243,-1.66307 -35.77514,-3.55055 -3.32653,-0.57824 -1.0999,-0.0762 3.07779,-0.49887 0.1378,-0.0139 -0.1483,-0.32512 -0.28494,-0.30243 -0.41946,0.0697 -0.81887,0.23151 -1.23444,0.32153 -0.4872,0.10554 -0.98124,0.17649 -1.47186,0.26473 -4.11917,0.40573 -8.27088,0.29798 -12.40726,0.56436 -2.88411,0.18574 -5.75038,0.58907 -8.63014,0.83327 -5.41235,0.20125 -10.83561,0.3611 -16.24993,0.11076 -1.427,-0.066 -2.94056,0.19646 -4.2739,-0.31628 -0.75899,-0.29187 2.38148,0.41083 2.40617,-0.40196 0.0243,-0.80127 -1.58964,-0.2086 -2.38446,-0.31289 -3.82764,-0.58629 -7.67155,-0.0489 -11.46017,0.54284 -4.59046,0.73116 -9.03994,2.09951 -13.57179,3.11616 -3.36349,0.87178 -4.97586,1.4324 -9.41114,0.85338 -1.31804,-0.17207 -2.39098,-1.16338 -3.56496,-1.78676 -0.93414,-0.49603 1.80747,1.60899 2.84519,1.40456 10.12843,-1.99531 13.90977,-7.75683 10.77343,-3.28833 -1.6123,1.89938 -0.39433,0.5629 -4.10191,3.54983 -1.24449,0.68713 -10.96191,-16.91265 -9.71742,-17.59978 l 0,0 c -2.73599,2.6167 -1.97819,1.50199 -2.85732,2.86136 -1.89789,4.32618 0.80139,-2.03528 11.75399,-4.55646 1.12486,-0.25893 2.00821,1.53035 3.1574,1.42202 2.8978,-0.27317 -17.40324,-5.66954 -9.22906,-0.98418 5.16922,-2.56088 10.57608,-4.43332 16.24651,-5.58389 0.71013,-0.0726 6.09455,-0.63502 6.74405,-0.65119 2.32627,-0.0579 4.69426,0.51676 7.01443,-0.095 5.38608,-0.77149 0.6564,-0.16786 11.08498,-0.72728 6.89153,-0.36968 13.78345,-0.632 20.68211,-0.0991 1.573,0.15515 3.14832,0.28841 4.71901,0.46545 1.15213,0.12986 2.88179,-0.55643 3.44836,0.45513 0.49246,0.87925 -2.01584,0.1417 -3.0044,0.33751 -2.73059,0.54085 6.14349,-0.74969 3.92465,0.0904 0.54561,0.0686 1.07459,0.31651 1.6239,0.29075 0.74782,-0.0351 1.42785,-0.50581 2.17434,-0.56252 2.81693,-0.21402 5.65273,-0.11419 8.46532,-0.40772 5.19385,-0.21496 10.38846,-0.36226 15.58387,-0.53506 2.10598,-0.07 4.21833,-0.0317 6.31794,-0.20957 0.3138,-0.0266 0.5713,-0.26539 0.8569,-0.39809 22.1594,-1.42347 44.301,-3.45957 66.51681,-3.71515 7.6529,-0.0759 16.2306,-0.61587 23.8662,0.22287 3.6422,0.40009 7.6214,-0.11137 10.8809,1.56259 5.4671,2.80773 5.5937,5.82072 6.515,10.17431 0.2702,2.84375 -0.3107,5.59441 0.018,8.42753 0.5748,5.98512 1.3921,11.95562 1.2707,17.99462 0.2847,11.23484 0.4549,22.4722 0.3741,33.71112 0.1512,11.17143 -0.2351,22.32805 -0.5485,33.49291 -0.01,11.64639 0.8461,23.24554 1.3288,34.87705 0.3308,14.13706 0.3426,28.31689 -0.8732,42.41624 -0.3887,2.9317 -1.5584,13.8711 -4.3618,15.56367 -0.8687,-3.27719 -2.6626,-11.30712 -4.1038,-7.66546 -5.2092,13.16309 3.2261,17.79419 -5.3458,18.8258 -6.5951,0.68285 -13.293,0.32364 -19.8842,-0.26608 -1.3711,-0.11455 -1.125,-0.1306 -2.3736,-0.11261 -0.348,0.005 -1.3906,0.007 -1.0435,0.0315 7.4938,0.53269 2.8412,0.0932 -0.077,0.92978 -14.1987,1.34105 -28.51181,2.16318 -42.75871,0.97784 -10.3371,-0.59698 -20.6606,-0.82519 -31.0161,-0.71199 2.5035,-0.26228 1.3311,-0.10179 -3.47776,-0.13459 -4.30818,-0.0294 -8.61962,10e-4 -12.92743,0.0648 -1.37181,0.0202 -2.74271,0.0811 -4.11406,0.12158 -8.72471,0.53085 -0.077,0.0613 -14.60373,0.4647 -8.58142,0.23833 -17.16875,0.66734 -25.75523,0.23413 -3.20076,-0.12925 -12.55874,-0.45966 -15.7766,-0.77776 -0.36383,-0.036 -0.65137,-0.37246 -1.01417,-0.41765 -4.89113,-0.60929 -9.84907,-0.53807 -14.74045,-1.15509 -0.0654,-0.0199 -2.18661,-0.44016 -2.40551,-1.06276 -0.14923,-0.42444 0.46166,-1.24809 0.0233,-1.34953 -14.07664,-3.2578 -18.86618,2.97441 -20.73884,-5.52492 -1.79989,-11.67619 -2.13409,-23.51493 -3.06773,-35.278 -1.6266,-28.31548 -2.07898,-56.68865 -1.42529,-85.04521 0.53936,-21.01788 0.92231,-42.23048 4.66769,-62.97161 0,-1.51219 21.38553,-1.51219 21.38553,0 z"
                                   inkscape:connector-curvature="0" />
                                <path
                                   style="opacity:1;fill:#58f48f;fill-opacity:1;stroke:none;stroke-width:4;stroke-linecap:round;stroke-linejoin:round;stroke-miterlimit:4;stroke-dasharray:none;stroke-dashoffset:0;stroke-opacity:1"
                                   id="path4262"
                                   d="m 752.56597,412.0731 c 9.32997,-2.94594 19.25349,-3.096 28.95295,-3.17118 10.25895,-0.35092 20.40248,1.2829 30.64884,0.8946 1.59007,-0.0739 3.18719,-0.0548 4.77022,-0.22158 0.18064,-0.019 -0.67565,-0.21482 -0.49455,-0.22887 7.61795,-0.59107 15.36599,-0.19382 22.99803,-0.14764 15.85531,-0.42103 31.70022,-1.04691 47.56359,-0.60288 4.40308,0.10693 8.76542,0.67945 13.08736,1.48673 0.61449,0.11478 2.43799,0.19607 1.83811,0.37188 -2.85789,0.83761 -5.62366,-0.24572 -3.56555,0.49723 9.41635,2.79198 11.97566,2.03637 13.57207,10.26338 -4.15368,-2.80341 -8.39787,-5.47717 -12.46105,-8.41022 -0.19261,-0.13904 0.47134,-0.0735 0.7089,-0.0732 9.99551,0.0117 5.30423,-0.64701 10.28655,0.67435 0.49477,0.13122 1.02441,0.15119 1.49412,0.35465 0.90829,0.39343 1.73802,0.94785 2.60702,1.42177 4.1777,2.81465 5.68445,7.27535 6.14169,12.05065 0.15393,4.39863 0.32716,8.79726 0.56112,13.19304 1.25581,17.32028 3.10596,34.59014 4.42899,51.91183 2.49168,36.70039 2.30185,73.34411 -0.17044,110.02647 -0.77811,9.18705 -1.77161,18.35499 -2.97861,27.49531 -0.27121,2.0538 -0.99364,6.45815 -1.0155,8.71254 -0.0111,1.14172 0.18142,2.27634 0.27213,3.4145 0.92785,6.79193 3.43568,13.42852 3.67448,20.30999 -0.13867,-0.0464 -0.27734,-0.0928 -0.41601,-0.13913 0.4814,1.35044 -18.61671,8.15844 -19.09811,6.808 l 0,0 c -0.31233,-0.4485 -0.62465,-0.897 -0.93698,-1.3455 -4.06703,-7.50642 -5.19738,-16.07304 -5.8946,-24.46971 -0.64591,-13.66382 -3.45252,-27.1252 -4.18508,-40.79541 -2.44197,-36.62487 -2.62044,-73.34769 -0.18581,-109.98957 1.29232,-17.39098 3.05711,-34.73477 4.32824,-52.12252 0.29427,-4.19718 0.56274,-8.39968 1.11766,-12.5723 0.0395,-0.0629 0.0757,-0.24921 0.11856,-0.18857 0.26547,0.37568 0.24375,0.89181 0.43883,1.30841 0.53615,1.14496 1.15116,2.19865 1.72395,3.29971 0.0548,0.0915 0.27086,0.28098 0.16442,0.27446 -0.40889,-0.0251 -0.78129,-0.25121 -1.18189,-0.33684 -0.0949,-0.0203 -0.3872,0.0248 -0.29022,0.0222 2.061,-0.0544 4.1209,-0.16868 6.18259,-0.17773 0.35709,-0.002 -0.74474,0.323 -1.05997,0.15523 -4.8081,-2.55895 -9.41003,-5.48775 -14.11505,-8.23163 1.18223,5.88204 3.02611,4.88214 11.25168,6.69051 -2.51994,1.00761 0.33196,-0.0681 -6.80818,0.50232 -5.1245,0.40939 -10.6364,2.22047 -15.88082,1.81142 -5.69244,0.14126 -9.16726,0.29842 -14.9104,0.14316 -0.46183,-0.0125 -0.90891,-0.18227 -1.37012,-0.20914 -6.32753,-0.36872 -12.67729,-0.49073 -19.0141,-0.51191 -13.07675,0.2225 -26.16658,0.40696 -39.23054,-0.40306 -6.57294,-0.42645 -13.21035,-0.56966 -19.79262,-0.1996 -0.36156,0.0203 0.72344,0.0344 1.08516,0.0516 -9.11165,0.0741 -18.23763,0.50801 -27.34047,0.0196 -1.38715,0.53886 -9.00775,-19.07846 -7.62059,-19.61732 z"
                                   inkscape:connector-curvature="0" />
                                <path
                                   style="opacity:1;fill:#58f48f;fill-opacity:1;stroke:none;stroke-width:4;stroke-linecap:round;stroke-linejoin:round;stroke-miterlimit:4;stroke-dasharray:none;stroke-dashoffset:0;stroke-opacity:1"
                                   id="path4264"
                                   d="m 946.38619,199.45354 c 7.689,36.20289 8.401,73.48597 10.2279,110.32327 1.6717,23.81004 3.1335,47.72623 7.0403,71.30717 1.2042,7.26816 3.4042,17.78898 5.9526,25.16831 0.5448,1.57746 1.4319,3.01501 2.1478,4.52252 2.9449,-11.82496 -11.8692,-0.0925 -12.972,0.35542 -0.3429,0.13927 -0.924,-2.32934 -1.1433,-2.91143 -0.1409,0.30123 -0.8522,1.70444 0.6496,1.13985 6.313,-2.37348 12.4073,-5.30255 18.4926,-8.21046 0.34,-0.16246 0.2639,-0.95951 0.6397,-0.93197 0.5584,0.0409 3.6319,2.4351 3.8822,2.62154 -1.4064,2.19602 3.7464,0.44004 2.7586,0.25849 -1.6282,-0.29924 -3.3105,-0.15385 -4.9538,-0.35457 -0.3974,-0.0485 0.8052,-0.0203 1.1966,-0.10434 0.8366,-0.17969 1.6495,-0.45604 2.4742,-0.68406 14.5078,-4.24536 29.76581,-4.24616 44.73701,-4.58657 15.3437,-0.3604 30.6938,-0.44 46.0397,-0.15967 3.6964,0.0675 7.3975,0.0513 11.0876,0.27869 3.4816,0.21456 6.9415,0.69752 10.4123,1.04628 7.2257,1.00666 14.5155,2.3202 21.3641,4.93193 1.451,0.55336 4.4601,1.92756 5.7601,3.20084 1.1595,1.1356 2.1116,2.4652 3.1674,3.6978 -2.0243,5.1752 -2.3387,11.41012 -6.0728,15.52559 -1.6988,1.87229 -8.6753,-0.25258 -11.4465,-1.25667 -1.3039,-0.66086 8.0422,-19.10017 9.3461,-18.4393 l 0,0 c 0.9861,0.0484 1.5539,0.0748 1.4044,0.0803 -10.7354,0.39149 -4.7396,-2.01206 -9.7494,15.55241 0.8695,1.02105 2.1486,1.80336 2.6083,3.06316 0.162,0.44395 -0.9197,0.2486 -1.3917,0.27029 -1.0652,0.0489 -2.1333,-0.0102 -3.1984,-0.0594 -6.541,-0.30208 -13.0762,-0.87752 -19.635,-0.64527 -22.2015,0.0693 -44.4123,0.33611 -66.5775,-1.29368 -5.3941,-1.08973 -2.1456,-0.55668 -10.85,-1.1819 -5.865,-0.42127 -11.80871,-1.02646 -17.67381,-0.30123 -0.9861,0.19005 -1.9782,0.35085 -2.9582,0.57015 -1.1514,0.25769 -2.2563,0.78346 -3.4338,0.86029 -9.1055,0.59406 -13.4712,-0.0732 -20.6224,-5.24251 -0.9713,-0.83049 -2.012,-1.58612 -2.914,-2.49147 -0.6595,-0.66205 -6.3812,-7.02952 -5.4044,-8.07886 14.149,-15.19939 16.082,-15.17337 22.0877,-4.69333 0.4804,1.56934 1.1591,3.09123 1.4412,4.70802 0.6339,3.63355 0.6546,9.17141 -1.0501,12.51378 -1.5196,2.97937 -2.9942,6.71462 -6.0937,7.97123 -11.7618,4.76852 -14.7851,1.09841 -23.077,-3.78303 -2.408,-2.57794 -5.15052,-4.87993 -7.22407,-7.73384 -6.38445,-8.78716 -10.56915,-18.9229 -13.91698,-29.1736 -8.0682,-24.70393 -11.68153,-50.55573 -12.71365,-76.45549 -0.0241,-9.61113 -0.32058,-19.22544 -0.0723,-28.8334 0.22925,-8.87151 0.85776,-17.73 1.50429,-26.58089 1.36414,-18.67481 3.2573,-37.48001 7.33694,-55.78034 0,-1.51218 21.38557,-1.51218 21.38557,0 z"
                                   inkscape:connector-curvature="0" />
                                </g>
                                </g>
                                </g>
                                </g>
                                </g>
                                </g>
                                </g>
                                </g>
                                </g>
                                </g>
                                </g>
                                </g>
                                </g>
                                </g>
                                </g>
                                </g>
                                </g>
                                </g>
                                </g>
                                </g>
                                </g>
                                </g>
                                </g>
                                </g>
                                </g>
                                </g>
                                </g>
                                </g>
                                </g>
                                </g>
                                </g>
                                </g>
                                </g>
                                </g>
                                </g>
                                </g>
                                </g>
                                </g>
                                </g>
                                </g>
                                </g>
                                </g>
                                </g>
                                </g>
                                </g>
                                </g>
                                </g>
                                </g>
                                </g>
                                </g>
                                </g>
                                </g>
                                </g>
                                </g>
                                </g>
                                </g>
                                </g>
                                </g>
                                </g>
                                </g>
                                </g>
                                </g>
                                </g>
                                </g>
                                </g>
                                </g>
                                </g>
                                </g>
                                </g>
                                </g>
                                </g>
                                </g>
                                </g>
                                </g>
                                </g>
                                </g>
                                </g>
                                </g>
                                </g>
                                </g>
                                </g>
                                </g>
                                </g>
                                </g>
                                </g>
                                </g>
                                </g>
                                </g>
                                </g>
                                </g>
                                </g>
                                </g>
                                </g>
                                </g>
                                </g>
                                </g>
                                </g>
                                </g>
                                </g>
                                </g>
                                </g>
                                </g>
                                </g>
                                </g>
                                </g>
                                </g>
                                </g>
                                </g>
                                </g>
                                </g>
                                </g>
                                </g>
                                </g>
                                </g>
                                </g>
                                </g>
                                </g>
                                </g>
                                </g>
                                </g>
                                </g>
                                </g>
                                </g>
                                </g>
                                </g>
                                </g>
                                </g>
                                </g>
                                </g>
                                </g>
                              </g>
                            </g>
                          </g>
                        </g>
                      </g>
                    </g>
                  </g>
                </g>
              </g>
            </g>
          </g>
        </g>
      </g>
    </g>
  </g>
</svg>
